<svg width="180" height="180" xmlns="http://www.w3.org/2000/svg" fill-rule="evenodd" clip-rule="evenodd" stroke-linejoin="round" stroke-miterlimit="2">
<style>
    path {
      fill: #85ad8d;
    }
  </style>
    <path d="M87.853 95.327a2.016 2.016 0 00-3.864-.181l-19.428 56.566a2 2 0 01-2.886 1.086L28.32 133.693a4.497 4.497 0 01-2.221-3.722v-.03c-.22-22.122-.002-44.248-.002-66.373v-.017c.016-1.515.848-2.964 2.161-3.757l.025-.015c19.308-11.221 38.803-22.125 58.205-33.187l.013-.008A4.623 4.623 0 0188.784 26h.03a4.626 4.626 0 012.1.562c19.494 10.903 38.804 22.124 58.205 33.185l.013.007a4.496 4.496 0 012.222 3.759l.053 9.471c.005.85 2.12 65.918 2.526 78.419a2.003 2.003 0 01-1.999 2.064h-7.117a2 2 0 01-1.998-1.892l-3.015-55.886a1.953 1.953 0 00-3.677-.804l-27.697 52.667a1.992 1.992 0 01-1.762 1.065h-4.332c-.934 0-1.747-.64-1.967-1.549-1.75-7.24-9.187-37.981-12.516-51.742zm51.195-27.925a1.425 1.425 0 00-.11-1.506c0-.001 0-.002-.002-.002a17.12 17.12 0 00-5.363-4.77l-36.077-20.57a17.739 17.739 0 00-17.54 0l-36.11 20.589c-5.42 3.09-8.758 8.794-8.758 14.963v41.292c0 6.134 3.318 11.803 8.707 14.875l11.82 6.739a1.975 1.975 0 002.845-1.08L83.05 65.466a2 2 0 011.894-1.357h5.356c.92 0 1.722.629 1.94 1.523l13.862 56.795a2 2 0 003.711.458l29.236-55.484z"/>
</svg>


