<svg viewBox="0 0 256 256" xmlns="http://www.w3.org/2000/svg" xml:space="preserve" style="fill-rule:evenodd;clip-rule:evenodd;stroke-linejoin:round;stroke-miterlimit:2"><g transform="translate(66.52 382.99) scale(1.00787)"><path style="fill:none" d="M-66-380h254v254H-66z"/><clipPath id="a"><path d="M-66-380h254v254H-66z"/></clipPath><g clip-path="url(#a)"><path d="m46.557 21.109-12.54-7.24a1.017 1.017 0 0 0-1.015 0l-12.54 7.24a1.015 1.015 0 0 0-.508.879v14.48c0 .362.194.697.508.879l12.54 7.24c.314.181.701.181 1.015 0l12.54-7.24c.314-.181.507-.516.507-.879v-14.48c0-.363-.193-.698-.507-.879Z" style="fill:#827dfa;fill-rule:nonzero" transform="translate(-67.908 -364.56) scale(3.84691)"/><path d="M.904 27.705 15.888 1.638C16.432.695 17.438 0 18.526 0h29.967c1.089 0 2.094.695 2.639 1.638l14.983 26.009a3.1 3.1 0 0 1 0 3.075L51.132 56.576c-.545.942-1.55 1.424-2.639 1.424H18.526c-1.088 0-2.094-.467-2.638-1.41L.905 30.694a2.939 2.939 0 0 1-.001-2.989Zm12.408 12.534c0 .383.23.738.562.93L32.96 52.18c.332.192.748.192 1.08 0l19.1-11.011c.332-.192.564-.546.564-.93V18.216c0-.383-.229-.738-.561-.929L34.058 6.275a1.083 1.083 0 0 0-1.079 0L13.877 17.287c-.332.191-.565.546-.565.929v22.023Z" style="fill:#5229cb;fill-rule:nonzero" transform="translate(-67.908 -364.56) scale(3.84691)"/></g></g></svg>