<svg
xmlns="http://www.w3.org/2000/svg"
    width="32"
    height="32"
    stroke-linejoin="round"
    stroke-miterlimit="2"
  >
    <style>
    path {
      fill: #85ad8d;
    }
  </style>
    <path
      d="M32 2.353v27.294A2.365 2.365 0 0129.647 32H2.353A2.365 2.365 0 010 29.647V2.353A2.365 2.365 0 012.353 0h27.294A2.365 2.365 0 0132 2.353zM9.412 12.235H4.706v15.06h4.706v-15.06zm.423-5.176V7.04c0-1.48-1.212-2.7-2.691-2.71h-.085a2.742 2.742 0 00-2.73 2.729 2.742 2.742 0 002.73 2.73h.067a2.723 2.723 0 002.71-2.645v-.085zm17.46 11.087c0-4.527-2.88-6.287-5.742-6.287a5.37 5.37 0 00-4.762 2.428h-.132v-2.052h-4.424v15.06h4.706v-8.01a3.14 3.14 0 012.824-3.37h.179c1.496 0 2.607.941 2.607 3.313v8.066h4.705l.038-9.148z"
      fill-rule="nonzero"
    />
</svg>
