<svg viewBox="0 0 256 256" xmlns="http://www.w3.org/2000/svg" xml:space="preserve" style="fill-rule:evenodd;clip-rule:evenodd;stroke-linejoin:round;stroke-miterlimit:2"><g transform="translate(66.52 382.99) scale(1.00787)"><path style="fill:none" d="M-66-380h254v254H-66z"/><clipPath id="a"><path d="M-66-380h254v254H-66z"/></clipPath><g clip-path="url(#a)"><path d="M267.854 36.662c-9.773-1.751-20.536-2.805-32.427-2.997-22.957-.377-41.275 5.048-55.966 13.789-11.91-4.013-33.49-10.25-56.989-12.048-25.917-1.983-53.801 1.687-75.293 16.984C24.101 68.816 6.713 98.786 9.416 152.826c1.185 23.687 24.911 139.542 57.931 183.983 12.78 17.201 27.869 25.044 42.269 23.809 7.329-.628 15.168-3.518 22.965-10.017.451.56.94 1.107 1.46 1.646 4.763 4.933 13.856 9.618 21.503 11.53 11.117 2.78 31.745 5.988 52.07-2.715.409 6.368.781 12.882.976 17.741.85 21.171 2.691 40.871 7.006 52.518 3.135 8.462 7.786 24.236 20.55 33.805 9.465 7.096 23.337 12.017 44.937 7.388 15.354-3.291 28.985-7.783 40.319-18.289 15.213-14.103 27.546-40.865 29.101-99.637l.605-4.777.159-1.167 3.357.294c16.76.763 38.126-2.859 50.705-8.701 17.882-8.299 30.528-21.143 33.686-28.435 3.356-7.749 2.228-14.43-.51-19.511-2.88-5.344-11.554-14.54-31.259-10.472-9.186 1.895-16.516 2.79-22.371 2.943 31.83-53.653 50.444-113.107 53.549-153.349 1.886-24.444-2.613-42.988-10.279-52.784-36.207-46.264-88.048-52.271-124.302-48.968-15.643 1.425-28.399 4.661-35.989 7.001Z" style="fill-rule:nonzero" transform="matrix(.57026 0 0 .57026 -67.372 -396.483)"/><path d="M402.395 271.23c-50.302 10.376-53.76-6.655-53.76-6.655 53.111-78.808 75.313-178.843 56.153-203.326-52.27-66.785-142.752-35.2-144.262-34.38l-.486.087c-9.938-2.063-21.06-3.292-33.56-3.496-22.761-.373-40.026 5.967-53.127 15.902 0 0-161.411-66.495-153.904 83.63 1.597 31.938 45.776 241.657 98.471 178.312 19.26-23.163 37.869-42.748 37.869-42.748 9.243 6.14 20.308 9.272 31.908 8.147l.901-.765c-.28 2.876-.152 5.689.361 9.019-13.575 15.167-9.586 17.83-36.723 23.416-27.459 5.659-11.328 15.734-.796 18.367 12.768 3.193 42.307 7.716 62.266-20.224l-.796 3.188c5.319 4.26 9.054 27.711 8.428 48.969-.626 21.259-1.044 35.854 3.147 47.254 4.191 11.4 8.368 37.05 44.042 29.406 29.809-6.388 45.256-22.942 47.405-50.555 1.525-19.631 4.976-16.729 5.194-34.28l2.768-8.309c3.192-26.611.507-35.196 18.872-31.203l4.463.392c13.517.615 31.208-2.174 41.591-7 22.358-10.376 35.618-27.7 13.573-23.148h.002Z" style="fill:#1d6895;fill-rule:nonzero" transform="matrix(.57026 0 0 .57026 -62.447 -380.004)"/><path d="M179.456 172.676c.178.488.422 1.003.739 1.529 1.669 2.767 5.318 6.057 9.649 6.658 4.423.616 8.414-1.679 10.52-3.976 1.103-1.204 1.696-2.452 1.821-3.354.164-1.173-.253-2.45-1.415-3.605-1.625-1.616-5.111-3.167-9.332-3.755-4.216-.588-7.994-.048-9.998 1.061-1.436.795-2.184 1.911-2.344 3.084l-.003.024c-.079.606.027 1.422.363 2.334Zm-.363-2.334.004-.035-.335 2.369h.013l.318-2.334ZM341.606 166.298c-.124-.891-.731-1.709-1.821-2.312-1.875-1.037-5.411-1.49-9.353-.941-3.941.549-7.218 1.952-8.74 3.462-.884.878-1.246 1.831-1.125 2.722l.001.002c.137.977 1.01 2.422 2.489 3.693 2.047 1.759 5.22 3.236 8.688 2.753 4.001-.555 7.359-3.609 8.9-6.165.763-1.265 1.069-2.444.962-3.214h-.001Zm-1.135 1.116a.414.414 0 0 0-.01.033l-.004.013c.067.014.111.019.119.02l-.099-.087-.006.021Zm.013-.048-.007.026.098.085a15.04 15.04 0 0 1-.091-.111Z" style="fill:#fff;fill-rule:nonzero" transform="matrix(.57026 0 0 .57026 -67.372 -396.483)"/><path d="M181.094 60.233c-8.301-3.067-32.738-11.333-59.884-13.326-23.083-1.695-48.007 1.237-67.149 14.912-20.526 14.663-34.959 41.727-32.557 89.755 1.14 22.801 23.706 134.403 55.489 177.179 9.599 12.919 20.383 19.751 31.198 18.823 7.332-.629 15.1-4.752 22.802-14.011l.002-.002c15.131-18.203 29.115-33.297 34.277-38.787 7.513 4.044 15.89 6.407 24.653 6.639l.023.365.028.315c-2.686 3.183-4.598 5.743-6.346 7.877-1.703 2.078-3.158 3.662-5.459 4.974-3.649 2.08-9.032 3.565-18.91 5.599h-.002c-7.906 1.629-12.725 3.767-15.422 5.81-3.375 2.556-4.55 5.429-4.715 8.056-.18 2.869.948 5.885 3.528 8.557 3.424 3.545 10.062 6.718 15.559 8.092 12.277 3.072 38.494 7.059 59.655-12.217-.281 41.991 1.866 79.896 6.045 90.348v.001c3.292 8.228 9.061 20.947 21.689 28.077 8.464 4.779 20.069 7.225 36.303 3.747h.001c16.43-3.522 27.531-8.909 35.276-16.959 7.788-8.095 12.308-18.997 14.917-34.127 2.787-16.149 7.638-55.219 9.918-76.156 1.083.364 2.242.68 3.475.941 14.526 3.08 40.401.021 54.241-6.403 12.478-5.794 22.262-13.738 26.007-19.386 3.022-4.558 2.896-8.649 1.447-11.342-1.081-2.012-3.029-3.843-6.453-4.647-2.401-.564-6.11-.61-11.308.463-23.151 4.779-35.517 3.638-42.101.913a12.142 12.142 0 0 1-2.807-1.626c36.383-55.396 57.842-120.254 61.131-162.864 1.572-20.366-1.278-35.981-7.664-44.142C366.774 20.25 280.647 44.49 268.192 48.722c-.733.249-1.36.523-1.89.794-9.653-2.4-20.118-3.831-31.44-4.017-22.596-.37-40.146 5.424-53.768 14.734Zm149.619 261.266c-.963-19.091 6.767-25.392 13.652-28.492 1.48-.667 3.367-1.31 4.958-1.805-.724-1.006-1.632-2.067-2.596-3.277-4.279-5.37-10.029-12.286-14.463-23.035-3.056-7.407-23.917-39.554-30.937-67.697-4.028-16.148-3.326-31.073 5.208-40.837 7.403-8.47 21.324-13.708 45.233-11.3-7.576-22.973-41.159-85.848-117.11-87.093-45.286-.743-67.103 27.219-77.682 55.251l-7.66 43.744a88.527 88.527 0 0 1 2.585-1.324c10.567-5.19 24.953-9.793 37.575-9.027 14.214.862 26.53 7.85 30.62 26.761v.001c13.237 61.216-3.194 80.529-10.365 99.824-2.537 6.838-5.046 13.067-6.393 18.741.906-.231 1.784-.37 2.628-.444 3.828-.334 7.182.814 10.021 1.99l.001.001c5.608 2.324 10.626 7.902 13.06 14.472a26.117 26.117 0 0 1 1.398 5.548c.205.647.307 1.339.287 2.055-1.354 48.405.014 97.161 4.75 109.007 2.526 6.315 6.553 16.38 16.244 21.852 6.416 3.622 15.255 5.049 27.563 2.413 13.376-2.868 22.6-6.859 28.905-13.413 6.263-6.509 9.518-15.437 11.616-27.603v-.001c3.406-19.734 9.94-74.167 10.902-86.312Zm-112.477-4.92-.023.844c-.097 1.331-.492 2.611-1.298 3.739v.001c-17.822 24.954-44.281 20.658-55.681 17.805h-.002c-2.509-.628-5.416-1.763-7.697-3.189a7.011 7.011 0 0 1-.564-.396c.149-.076.299-.147.446-.211 2.026-.878 4.769-1.679 8.359-2.419 11.832-2.436 18.198-4.486 22.569-6.979 6.525-3.72 8.704-8.515 17.539-18.385l.004-.004c1.999-2.237 3.594-3.34 5.163-3.477 1.613-.141 2.969.592 4.166 1.088 2.74 1.136 4.953 4.075 6.143 7.288.513 1.385.851 2.857.876 4.295ZM169.841 69.512c-10.738-3.517-29.343-8.69-49.544-10.173-20.244-1.487-42.202.63-58.99 12.623-17.971 12.838-29.457 36.94-27.354 78.99 1.096 21.912 22.5 129.256 53.045 170.366 6.435 8.661 12.878 14.461 20.128 13.839 4.709-.404 9.337-3.616 14.283-9.562 14.192-17.074 27.393-31.455 33.465-37.953-15.534-13.264-24.86-34.758-21.545-58.464 3.887-27.796.989-51.679 1.007-57.666-.044-2.339-.375-32.616 10.978-62.699 5.306-14.061 13.104-28.059 24.527-39.301Zm186.303 232.692c-1.168.391-2.524.764-3.979 1.201-1.959.588-4.294 1.332-6.052 3.396-2.187 2.567-3.297 6.821-2.957 13.884.314.206.935.598 1.406.795 1.014.426 2.198.763 3.511 1.041 5.286 1.121 12.344 1.23 19.606.618 9.807-.827 20.001-2.977 26.802-6.133 7.353-3.415 13.65-7.62 17.735-11.451l-.273.053c-21.417 4.42-34.864 4.011-43.282 2.121-5.907-1.327-9.867-3.395-12.517-5.525Zm-164.843-13.231c-27.443.004-49.988-26.88-45.627-58.069 3.672-26.255 1.533-49.115 1.178-57.44 1.738-1.297 6.21-4.512 10.544-6.641 8.826-4.335 20.784-8.413 31.326-7.774 8.95.543 16.615 5.046 19.191 16.955 12.315 56.951-3.195 74.896-9.867 92.85l-.002.003c-2.696 7.268-5.231 13.976-6.743 20.116Zm163.765-10.577c.487.609.959 1.195 1.41 1.761.242.304.479.605.71.902 33.222-52.323 52.953-112.328 56.031-152.195 1.258-16.301.058-28.969-5.053-35.501-36.767-46.981-93.496-42.549-121.114-36.766 45.905 20.227 68.814 62.805 75.998 83.035 2.313 6.514 2.942 11.198 2.743 12.882a9.56 9.56 0 0 1-.185 1.054c.526 15.341-3.52 26.207-4.052 42.875v.003c-.397 12.215 2.552 25.31 3.22 38.854.694 14.072-.899 28.557-9.708 43.096Zm-1.871-120.646c-9.694-1.213-17.517-1.143-23.757.051-6.189 1.184-10.621 3.444-13.518 6.758-6.161 7.05-5.406 17.959-2.499 29.617 6.849 27.456 27.385 58.734 30.366 65.961a62.388 62.388 0 0 0 3.302 6.803c6.23-13.184 5.891-26.303 4.625-38.884-1.117-11.102-2.948-21.852-2.619-32.012.478-14.955 3.937-25.117 4.1-38.294ZM267.314 49.101a6.203 6.203 0 0 1 3.766.135 5.055 5.055 0 0 0-1.703-.387l-.361-.008a6.35 6.35 0 0 0-1.62.237l-.082.023-.066.019.066-.019Z" style="fill:#fff" transform="matrix(.57026 0 0 .57026 -67.372 -396.483)"/></g></g></svg>