<svg viewBox="0 0 256 256" xmlns="http://www.w3.org/2000/svg" xml:space="preserve" style="fill-rule:evenodd;clip-rule:evenodd;stroke-linecap:round;stroke-linejoin:round"><path style="fill:none" d="M-66-380h254v254H-66z" transform="translate(66.52 382.99) scale(1.00787)"/><g transform="matrix(.53755 0 0 .53755 24.09 -13.314)"><path d="M103.951 258.274c44.361-4.361 60.014-40.391 65.353-94.699 5.338-54.308-30.933-103.451-46.021-101.968-15.088 1.483-63.038 58.905-68.377 113.213-5.338 54.308 4.683 87.815 49.045 83.454Z" style="fill:url(#a)" transform="rotate(-38 137.962 147.099)"/><path d="M275.877 258.274c44.361 4.361 53.167-29.265 47.828-83.573-5.338-54.309-52.073-111.611-67.161-113.094-15.088-1.483-52.575 47.54-47.236 101.848 5.338 54.308 22.207 90.458 66.569 94.819Z" style="fill:url(#b)" transform="rotate(52 240.026 189.002)"/><path d="M229.591 971.697c20.337 2.497 28.335-16.292 32.064-46.661 3.729-30.37-11.643-62.469-18.56-63.319-6.917-.849-30.155 26.509-33.884 56.879-3.729 30.37.043 50.603 20.38 53.101Z" style="fill:url(#c)" transform="translate(-253.101 -1655) scale(1.94937)"/><path d="M184.473 501C267.592 501 335 476.855 335 367.355 335 257.855 267.592 168 184.473 168 101.355 168 34 257.855 34 367.355 34 476.855 101.355 501 184.473 501Z" style="fill:url(#d)"/><ellipse cx="260.5" cy="335" rx="21.5" ry="10" style="fill:#eaadcc"/><ellipse cx="102.5" cy="329" rx="21.5" ry="10" style="fill:#eaadcc" transform="rotate(7 102.5 329)"/><g><path d="M73.105 58.273c6.737 4.913 14.313 6.664 22.728 5.253 8.415-1.411 14.505-5.254 18.272-11.528" style="fill:none;stroke:#000;stroke-width:6px" transform="scale(-1 1) rotate(3 -5278.85 -4986.398)"/><path d="M114.983 279.418a21.435 21.435 0 0 1 15.414 5.763 21.433 21.433 0 0 1 6.824 14.973 21.433 21.433 0 0 1-5.763 15.414 21.433 21.433 0 0 1-14.975 6.824 21.432 21.432 0 0 1-15.413-5.763 21.436 21.436 0 0 1-6.823-14.975 21.428 21.428 0 0 1 5.763-15.412 21.428 21.428 0 0 1 14.973-6.824Z"/><path d="M154 21a7 7 0 1 1 14 0 7 7 0 0 1-14 0Z" style="fill:#fff" transform="scale(-1 1) rotate(2 -7898.234 -7578.149)"/><path d="M245.254 284.875a21.43 21.43 0 0 1 15.413 5.763 21.428 21.428 0 0 1 6.824 14.973 21.433 21.433 0 0 1-5.763 15.414 21.429 21.429 0 0 1-14.974 6.824 21.432 21.432 0 0 1-15.413-5.763 21.433 21.433 0 0 1-6.824-14.975 21.43 21.43 0 0 1 5.763-15.412 21.432 21.432 0 0 1 14.974-6.824Z"/><path d="M136 24.499C136 34.718 144.283 43 154.501 43 164.718 43 173 34.718 173 24.499 173 14.282 164.718 6 154.501 6 144.283 6 136 14.282 136 24.499Zm-6 0C130 10.968 140.969 0 154.501 0 168.032 0 179 10.968 179 24.499 179 38.031 168.032 49 154.501 49 140.969 49 130 38.032 130 24.499ZM6 34.499C6 44.718 14.282 53 24.5 53 34.717 53 43 44.718 43 34.499 43 24.282 34.717 16 24.5 16 14.282 16 6 24.282 6 34.499Zm-6 0C0 20.968 10.968 10 24.5 10 38.031 10 49 20.968 49 34.499 49 48.031 38.031 59 24.5 59 10.968 59 0 48.032 0 34.499Z" style="fill:#fff;fill-rule:nonzero;stroke:#fff;stroke-width:3px;stroke-linecap:butt;stroke-linejoin:miter" transform="scale(-1 1) rotate(2 -7898.234 -7578.149)"/><path d="M24 31a7 7 0 1 1 14 0 7 7 0 0 1-14 0Z" style="fill:#fff" transform="scale(-1 1) rotate(2 -7898.234 -7578.149)"/></g><g><path d="m70.5 377.5 74 77M134.5 386.5l-47 50" style="fill:none;stroke:#ecb732;stroke-width:11px;stroke-linejoin:miter"/><path d="m.5.5 74 77M64.5 9.5l-47 50" style="fill:none;stroke:#ecb732;stroke-width:11px;stroke-linejoin:miter" transform="matrix(-1 0 0 1 298 377)"/><g><path d="m.5.5 49 49" style="fill:none;stroke:#ffc73b;stroke-width:11px;stroke-linejoin:miter" transform="rotate(90 4 211)"/><path d="m.5 10.5 49 49" style="fill:none;stroke:#ffc73b;stroke-width:11px;stroke-linejoin:miter" transform="matrix(0 -1 -1 0 215 257)"/></g></g></g><defs><linearGradient id="a" x1="0" y1="0" x2="1" y2="0" gradientUnits="userSpaceOnUse" gradientTransform="scale(-85.7194) rotate(-80.222 -1.114 .457)"><stop offset="0" style="stop-color:#52ce63;stop-opacity:1"/><stop offset="1" style="stop-color:#51a256;stop-opacity:1"/></linearGradient><linearGradient id="b" x1="0" y1="0" x2="1" y2="0" gradientUnits="userSpaceOnUse" gradientTransform="rotate(99.796 110.656 145.808) scale(85.7235)"><stop offset="0" style="stop-color:#52ce63;stop-opacity:1"/><stop offset="1" style="stop-color:#51a256;stop-opacity:1"/></linearGradient><linearGradient id="c" x1="0" y1="0" x2="1" y2="0" gradientUnits="userSpaceOnUse" gradientTransform="rotate(90 93.473 94.35) scale(127.032)"><stop offset="0" style="stop-color:#8ae99c;stop-opacity:1"/><stop offset="1" style="stop-color:#52ce63;stop-opacity:1"/></linearGradient><linearGradient id="d" x1="0" y1="0" x2="1" y2="0" gradientUnits="userSpaceOnUse" gradientTransform="rotate(94.255 -10.667 200.658) scale(275.5756)"><stop offset="0" style="stop-color:#ffe56c;stop-opacity:1"/><stop offset="1" style="stop-color:#ffc63a;stop-opacity:1"/></linearGradient></defs></svg>