<svg viewBox="0 0 256 256" xmlns="http://www.w3.org/2000/svg" xml:space="preserve" style="fill-rule:evenodd;clip-rule:evenodd;stroke-linejoin:round;stroke-miterlimit:2"><path d="M410.351 330.293c0 10.975 1.186 19.874 3.263 26.4 2.373 6.525 5.339 13.644 9.492 21.357 1.483 2.373 2.076 4.746 2.076 6.822 0 2.966-1.78 5.933-5.636 8.899l-18.687 12.458c-2.67 1.78-5.34 2.67-7.713 2.67-2.966 0-5.932-1.483-8.898-4.153a91.717 91.717 0 0 1-10.679-13.941c-2.966-5.043-5.932-10.679-9.195-17.501-23.137 27.289-52.206 40.934-87.208 40.934-24.917 0-44.791-7.119-59.325-21.357-14.535-14.238-21.951-33.222-21.951-56.952 0-25.213 8.899-45.681 26.993-61.105 18.094-15.425 42.121-23.137 72.674-23.137 10.085 0 20.467.89 31.442 2.373 10.975 1.483 22.247 3.856 34.112 6.526v-21.654c0-22.543-4.746-38.265-13.942-47.46-9.492-9.195-25.509-13.645-48.35-13.645-10.381 0-21.06 1.187-32.035 3.856-10.975 2.67-21.654 5.933-32.036 10.086-4.746 2.076-8.305 3.263-10.382 3.856-2.076.593-3.559.89-4.746.89-4.152 0-6.229-2.967-6.229-9.196v-14.534c0-4.746.593-8.306 2.077-10.382 1.483-2.077 4.152-4.153 8.305-6.229 10.382-5.34 22.84-9.789 37.375-13.349 14.535-3.856 29.959-5.636 46.274-5.636 35.298 0 61.105 8.009 77.716 24.027 16.314 16.018 24.62 40.341 24.62 72.97v96.107h.593Zm-120.43 45.087c9.788 0 19.874-1.78 30.552-5.339 10.679-3.56 20.171-10.085 28.18-18.984 4.746-5.636 8.305-11.865 10.085-18.984 1.78-7.119 2.966-15.721 2.966-25.807v-12.458c-8.602-2.076-17.797-3.856-27.289-5.043-9.492-1.186-18.688-1.779-27.883-1.779-19.874 0-34.409 3.856-44.198 11.865-9.788 8.008-14.534 19.28-14.534 34.112 0 13.941 3.559 24.323 10.975 31.442 7.119 7.416 17.501 10.975 31.146 10.975Zm238.19 32.036c-5.339 0-8.899-.89-11.272-2.967-2.373-1.779-4.449-5.932-6.229-11.568l-69.707-229.292c-1.78-5.932-2.669-9.788-2.669-11.865 0-4.746 2.373-7.416 7.119-7.416h29.069c5.636 0 9.492.89 11.568 2.967 2.373 1.78 4.153 5.932 5.933 11.568l49.833 196.366 46.274-196.366c1.483-5.932 3.263-9.788 5.636-11.568 2.373-1.78 6.525-2.967 11.865-2.967h23.73c5.636 0 9.492.89 11.865 2.967 2.373 1.78 4.449 5.932 5.636 11.568l46.866 198.739 51.317-198.739c1.78-5.932 3.856-9.788 5.932-11.568 2.373-1.78 6.229-2.967 11.569-2.967h27.586c4.746 0 7.416 2.373 7.416 7.416 0 1.483-.297 2.966-.594 4.746-.296 1.78-.89 4.153-2.076 7.416l-71.487 229.292c-1.78 5.932-3.856 9.788-6.229 11.568-2.373 1.78-6.229 2.966-11.272 2.966h-25.51c-5.636 0-9.492-.89-11.865-2.966-2.373-2.076-4.449-5.933-5.636-11.865l-45.977-191.324-45.68 191.027c-1.483 5.933-3.263 9.789-5.636 11.865-2.373 2.077-6.526 2.967-11.865 2.967h-25.51Zm381.164 8.009c-15.424 0-30.849-1.78-45.68-5.34-14.831-3.559-26.4-7.415-34.112-11.865-4.746-2.669-8.009-5.636-9.195-8.305-1.187-2.67-1.78-5.636-1.78-8.306v-15.128c0-6.229 2.373-9.195 6.822-9.195 1.78 0 3.56.296 5.34.89 1.779.593 4.449 1.78 7.415 2.966 10.086 4.449 21.061 8.009 32.629 10.382 11.865 2.373 23.434 3.559 35.299 3.559 18.687 0 33.222-3.262 43.307-9.788s15.425-16.018 15.425-28.18c0-8.305-2.67-15.128-8.009-20.763-5.34-5.636-15.425-10.679-29.96-15.425l-43.01-13.348c-21.654-6.823-37.672-16.908-47.46-30.256-9.789-13.052-14.832-27.586-14.832-43.011 0-12.458 2.67-23.433 8.009-32.925 5.339-9.492 12.458-17.798 21.357-24.324 8.899-6.822 18.984-11.865 30.849-15.424 11.865-3.56 24.324-5.043 37.375-5.043 6.526 0 13.348.297 19.874 1.187 6.822.89 13.052 2.076 19.281 3.263 5.932 1.483 11.568 2.966 16.907 4.746 5.34 1.779 9.492 3.559 12.459 5.339 4.152 2.373 7.119 4.746 8.899 7.416 1.779 2.373 2.669 5.635 2.669 9.788v13.942c0 6.229-2.373 9.492-6.822 9.492-2.373 0-6.229-1.187-11.272-3.56-16.908-7.712-35.892-11.568-56.952-11.568-16.908 0-30.256 2.669-39.451 8.305-9.196 5.636-13.942 14.238-13.942 26.4 0 8.305 2.966 15.424 8.899 21.06 5.932 5.636 16.908 11.272 32.629 16.315l42.121 13.348c21.357 6.822 36.781 16.314 45.977 28.476 9.195 12.162 13.644 26.103 13.644 41.528 0 12.755-2.669 24.323-7.712 34.408-5.339 10.086-12.458 18.984-21.654 26.103-9.195 7.416-20.17 12.755-32.925 16.611-13.348 4.153-27.29 6.23-42.418 6.23Z" style="fill:#c8d1de;fill-rule:nonzero" transform="matrix(.28704 0 0 .28704 -45.643 12.248)"/><path d="M965.338 559.585c-97.59 72.08-239.377 110.345-361.291 110.345-170.856 0-324.805-63.182-441.082-168.187-9.196-8.306-.89-19.578 10.085-13.052 125.769 72.97 280.905 117.167 441.379 117.167 108.269 0 227.216-22.543 336.671-68.817 16.314-7.415 30.256 10.679 14.238 22.544Z" style="fill:#f90" transform="matrix(.28704 0 0 .28704 -45.643 12.248)"/><path d="M1005.98 513.311c-12.459-16.018-82.462-7.712-114.201-3.856-9.492 1.186-10.976-7.119-2.373-13.348 55.765-39.155 147.423-27.883 158.101-14.832 10.679 13.349-2.966 105.006-55.172 148.907-8.009 6.822-15.721 3.263-12.162-5.636 11.865-29.366 38.265-95.514 25.807-111.235Z" style="fill:#f90" transform="matrix(.28704 0 0 .28704 -45.643 12.248)"/></svg>