<?xml version="1.0" encoding="UTF-8" standalone="no"?>
<!DOCTYPE svg PUBLIC "-//W3C//DTD SVG 1.1//EN" "http://www.w3.org/Graphics/SVG/1.1/DTD/svg11.dtd">
<svg width="100%" height="100%" viewBox="0 0 256 256" version="1.1" xmlns="http://www.w3.org/2000/svg" xmlns:xlink="http://www.w3.org/1999/xlink" xml:space="preserve" xmlns:serif="http://www.serif.com/" style="fill-rule:evenodd;clip-rule:evenodd;stroke-linejoin:round;stroke-miterlimit:2;">
    <g transform="matrix(1.45082,0,0,1.45082,4.68049,0)">
        <g id="_128" serif:id="128">
            <path id="Claris_1_" d="M77.58,176.129c0.969,0.162 2.259,0.323 4.194,0.323c48.711,0 88.226,-39.517 88.226,-88.226c-0,-48.71 -39.516,-88.226 -88.226,-88.226c-1.935,0 -3.225,0.161 -4.194,0.323l87.903,87.903l-87.903,87.903Zm-7.097,-17.419c1.936,0 3.227,-0.161 4.194,-0.322l-70.161,-70.162l70.161,-70.162c-0.968,-0.161 -2.258,-0.322 -4.194,-0.322c-38.871,-0 -70.483,31.613 -70.483,70.484c0,38.871 31.613,70.485 70.483,70.485Zm5.485,-18.065c28.871,0 52.419,-23.549 52.419,-52.42c0,-28.87 -23.548,-52.419 -52.419,-52.419c-1.936,0 -3.226,0.161 -4.193,0.322l52.096,52.097l-52.096,52.097c0.967,0.162 2.257,0.323 4.193,0.323Zm-3.064,-17.904c1.934,-0 3.225,-0.16 4.193,-0.322l-34.194,-34.194l34.194,-34.193c-0.968,-0.161 -2.259,-0.323 -4.194,-0.323c-19.033,0 -34.516,15.484 -34.516,34.516c-0,19.032 15.484,34.516 34.517,34.516Z" style="fill:rgb(229,229,229);fill-rule:nonzero;"/>
        </g>
    </g>
</svg>
