<svg xmlns="http://www.w3.org/2000/svg"
     width="32" height="32" stroke-linejoin="round" stroke-miterlimit="2">
  <style>
    path {
      fill: #85ad8d;
    }
  </style>
    <path
      d="M32 8c0-4.415-3.585-8-8-8H8C3.585 0 0 3.585 0 8v16c0 4.415 3.585 8 8 8h16c4.415 0 8-3.585 8-8V8zM15.865 29.365c-1.798 0-3.483-.296-5.056-.887a12.866 12.866 0 01-4.146-2.505 11.603 11.603 0 01-2.796-3.836c-.673-1.478-1.01-3.104-1.01-4.878s.337-3.441 1.01-5.002a12.989 12.989 0 012.796-4.114 13.1 13.1 0 014.146-2.776c1.573-.668 3.258-1.002 5.056-1.002 1.81 0 3.5.337 5.073 1.01a13.098 13.098 0 014.137 2.784 12.983 12.983 0 012.78 4.107c.668 1.555 1.002 3.219 1.002 4.993 0 .898-.113 1.796-.34 2.694a9.427 9.427 0 01-.984 2.455c-.43.74-.957 1.331-1.581 1.774-.623.444-1.337.666-2.143.666-.64 0-1.266-.145-1.878-.436a4.318 4.318 0 01-1.531-1.19 3.067 3.067 0 01-.695-1.692 5.006 5.006 0 01-1.788 1.651c-.74.41-1.594.615-2.565.615-1.202 0-2.303-.292-3.301-.878a6.65 6.65 0 01-2.384-2.366c-.59-.991-.885-2.088-.885-3.293s.295-2.3.885-3.285a6.665 6.665 0 012.384-2.357c.998-.586 2.099-.879 3.3-.879.95 0 1.816.2 2.6.6.783.399 1.395.933 1.837 1.601v-1.872l1.87.279v9.362c0 .526.209.964.629 1.314.419.351.888.526 1.406.526.662 0 1.203-.276 1.622-.829.42-.553.729-1.238.927-2.054.199-.815.298-1.618.298-2.406a10.23 10.23 0 00-.836-4.123 10.69 10.69 0 00-2.308-3.375 10.839 10.839 0 00-3.402-2.275 10.413 10.413 0 00-4.13-.822c-1.466 0-2.845.274-4.136.822a10.817 10.817 0 00-3.41 2.275 10.69 10.69 0 00-2.308 3.375 10.23 10.23 0 00-.836 4.123c0 1.467.276 2.801.827 4a9.214 9.214 0 002.3 3.096 10.595 10.595 0 003.41 2.004c1.29.471 2.676.706 4.154.706v2.3zM15.5 21.94c.872 0 1.622-.235 2.25-.706a4.654 4.654 0 001.457-1.831 5.587 5.587 0 00.513-2.341c0-.778-.157-1.506-.471-2.185a3.961 3.961 0 00-1.415-1.651c-.63-.421-1.407-.632-2.334-.632-.871 0-1.663.208-2.375.624a4.766 4.766 0 00-1.704 1.684 4.483 4.483 0 00-.638 2.357c0 .876.216 1.667.646 2.374a4.81 4.81 0 001.72 1.683 4.602 4.602 0 002.35.624z"
    />
</svg>
