<svg viewBox="0 0 256 256" xmlns="http://www.w3.org/2000/svg" xml:space="preserve" style="fill-rule:evenodd;clip-rule:evenodd;stroke-linejoin:round;stroke-miterlimit:2"><path d="M31.721 12.051a.983.983 0 0 0-.976 0l-8.055 4.678a.964.964 0 0 0-.478.848v9.375c0 .346.191.674.478.847l8.055 4.678a.983.983 0 0 0 .976 0l8.054-4.678a.964.964 0 0 0 .479-.847v-9.375c0-.347-.192-.674-.479-.848l-8.054-4.678Z" style="fill:url(#a);fill-rule:nonzero" transform="translate(-258.5 -147.447) scale(12.371)"/><path d="m39.795 16.729-8.093-4.678a1.37 1.37 0 0 0-.249-.096l-9.069 15.613c.077.096.172.173.268.231l8.093 4.678c.23.135.497.173.746.096l8.514-15.67a.606.606 0 0 0-.21-.174Z" style="fill:url(#b);fill-rule:nonzero" transform="translate(-258.5 -147.447) scale(12.371)"/><path d="M39.795 27.799c.229-.135.401-.366.478-.616l-8.858-15.247c-.23-.038-.479-.019-.689.116L22.69 16.71l8.667 15.902c.115-.019.249-.058.364-.116l8.074-4.697Z" style="fill:url(#c);fill-rule:nonzero" transform="translate(-258.5 -147.447) scale(12.371)"/><defs><linearGradient id="a" x1="0" y1="0" x2="1" y2="0" gradientUnits="userSpaceOnUse" gradientTransform="scale(-16.6285) rotate(-63.745 -1.79 1.202)"><stop offset="0" style="stop-color:#118a34;stop-opacity:1"/><stop offset=".33" style="stop-color:#078e30;stop-opacity:1"/><stop offset=".64" style="stop-color:#009925;stop-opacity:1"/><stop offset=".93" style="stop-color:#00ad00;stop-opacity:1"/><stop offset="1" style="stop-color:#00b200;stop-opacity:1"/></linearGradient><linearGradient id="b" x1="0" y1="0" x2="1" y2="0" gradientUnits="userSpaceOnUse" gradientTransform="rotate(-36.289 50.644 -34.106) scale(25.4628)"><stop offset="0" style="stop-color:#118a34;stop-opacity:1"/><stop offset=".14" style="stop-color:#118a34;stop-opacity:1"/><stop offset=".4" style="stop-color:#2aa334;stop-opacity:1"/><stop offset=".71" style="stop-color:#3ebb33;stop-opacity:1"/><stop offset=".91" style="stop-color:#44c333;stop-opacity:1"/><stop offset="1" style="stop-color:#44c333;stop-opacity:1"/></linearGradient><linearGradient id="c" x1="0" y1="0" x2="1" y2="0" gradientUnits="userSpaceOnUse" gradientTransform="translate(21.917 22.261) scale(18.6381)"><stop offset="0" style="stop-color:#44c333;stop-opacity:1"/><stop offset=".09" style="stop-color:#44c333;stop-opacity:1"/><stop offset=".29" style="stop-color:#3ebb33;stop-opacity:1"/><stop offset=".6" style="stop-color:#2aa334;stop-opacity:1"/><stop offset=".86" style="stop-color:#118a34;stop-opacity:1"/><stop offset="1" style="stop-color:#118a34;stop-opacity:1"/></linearGradient></defs></svg>