<svg viewBox="0 0 256 256" xmlns="http://www.w3.org/2000/svg" xml:space="preserve" style="fill-rule:evenodd;clip-rule:evenodd;stroke-linejoin:round;stroke-miterlimit:2"><g transform="translate(66.52 382.99) scale(1.00787)"><path style="fill:none" d="M-66-380h254v254H-66z"/><clipPath id="a"><path d="M-66-380h254v254H-66z"/></clipPath><g clip-path="url(#a)"><circle cx="-344" cy="41.9" r="107.4" style="fill:#fff" transform="translate(425.065 -296.392) scale(1.05833)"/><path d="M-324 70.2h-59c-8.6 0-13.6 5.3-13.6 12.9 0 6.8 4.6 11.6 11.2 11.6 7.7 0 12.1-5.3 12.5-12.9h17.1c-.9 18.6-12.5 28.5-29.8 28.5-16.2 0-28.3-11-28.3-27.4 0-17.1 12.7-29 31.8-29h58.4c19.7 0 34.7-14.5 34.7-34 0-19.7-13.4-33.6-32.5-33.6-18.9 0-34.2 13.8-34.2 39.3v16.7H-373V25.6c0-33.8 21.7-55.7 51.8-55.7 28.7 0 49.6 20.6 49.6 49.8.2 29.2-22.2 50.5-52.4 50.5m-20 90.8c67.1 0 120-53.1 120-120S-276.9-79-344-79-464-25.7-464 41c0 66.9 52.9 120 120 120" style="fill:#169cee;fill-rule:nonzero" transform="translate(425.065 -296.392) scale(1.05833)"/></g></g></svg>