<svg viewBox="0 0 256 256" xmlns="http://www.w3.org/2000/svg" xml:space="preserve" style="fill-rule:evenodd;clip-rule:evenodd;stroke-linejoin:round;stroke-miterlimit:2"><g transform="translate(66.52 382.99) scale(1.00787)"><path style="fill:none" d="M-66-380h254v254H-66z"/><clipPath id="a"><path d="M-66-380h254v254H-66z"/></clipPath><g clip-path="url(#a)"><path d="M.986 0h24.323a.98.98 0 0 1 .986.975v24.05a.98.98 0 0 1-.986.975H.986A.98.98 0 0 1 0 25.025V.975A.98.98 0 0 1 .986 0Z" style="fill:#fff" transform="matrix(9.65945 0 0 9.65945 -66 -380)"/><path d="M.986 0h24.323a.98.98 0 0 1 .986.975v24.05a.98.98 0 0 1-.986.975H.986A.98.98 0 0 1 0 25.025V.975A.98.98 0 0 1 .986 0Zm13.631 13.832V11.7H5.259v2.132H8.6v9.495h2.66v-9.495h3.357Zm1.061 9.244a5.66 5.66 0 0 0 1.522.487c.585.108 1.203.162 1.852.162a8.86 8.86 0 0 0 1.802-.178 4.464 4.464 0 0 0 1.497-.588 3.01 3.01 0 0 0 1.018-1.071c.251-.44.376-.985.376-1.634 0-.47-.072-.882-.215-1.236a2.896 2.896 0 0 0-.618-.945 4.557 4.557 0 0 0-.97-.742 10.446 10.446 0 0 0-1.274-.62c-.346-.14-.657-.277-.932-.409a4.752 4.752 0 0 1-.701-.406 1.767 1.767 0 0 1-.445-.438.906.906 0 0 1-.157-.523c0-.178.047-.339.14-.482.094-.143.225-.266.396-.369.17-.103.379-.183.627-.239.247-.057.522-.085.825-.085a5.387 5.387 0 0 1 1.435.198c.247.068.488.153.722.256.233.102.449.221.647.356v-2.424a6.544 6.544 0 0 0-1.316-.337 10.888 10.888 0 0 0-1.637-.109 7.69 7.69 0 0 0-1.781.199 4.564 4.564 0 0 0-1.481.62A3.115 3.115 0 0 0 16 13.593c-.248.435-.372.956-.372 1.561 0 .773.227 1.433.681 1.979.454.546 1.142 1.008 2.066 1.386.363.146.701.29 1.015.43.313.141.584.287.812.438.228.151.408.316.54.494a1 1 0 0 1 .075 1.075 1.1 1.1 0 0 1-.376.373 2.062 2.062 0 0 1-.627.247c-.25.06-.543.089-.878.089a5.07 5.07 0 0 1-1.699-.296 5.091 5.091 0 0 1-1.559-.887v2.594Z" style="fill:#0278cc" transform="matrix(9.65945 0 0 9.65945 -66 -380)"/></g></g></svg>